<svg
  xmlns="http://www.w3.org/2000/svg"
  width="1536"
  height="1024"
  style="shape-rendering: geometricPrecision; text-rendering: geometricPrecision; image-rendering: optimizeQuality; fill-rule: evenodd; clip-rule: evenodd"
>
  <path fill="#f9f9f9" d="M-.5-.5h1536v1024H-.5z" style="opacity: 1" />
  <path
    fill="#34bc56"
    d="M868.5 318.5q2 .5 3 2 5.4 7.5 12 14-1 1.8-3 1.5-6.4-4.6-10.5-11.5-1.3 1.5-3 0l-3.5 2.5q1.7.3 3 1.5-1.2 1.8-2.5 0-2.6 1.2-.5 3a6 6 0 0 1-5 3 7 7 0 0 1-4 6q-1.2-2.6-3-5a11 11 0 0 1-6-5q-1.5 1.7-2.5 0-1.7 5.4-3-1-2.6 1.5-3-2-1.9 8.8-2 18a22 22 0 0 0-2.5-9q-1 .8-1.5 2l-9.5-5q-2.5 2.1-4 5a76 76 0 0 1-3 15q0 5 1 10.5-2.2 12.2-3.5 24.5l-1-10a70 70 0 0 1-3 20l-1-9-1 23q-1.5 4.7-3.5 9 5.5-56.4 10-113l2-7q-.4 7.3 1.5 15-1-9.3 2.5-18.5-1.2-4.5.5-9.5l1 2q1.5-2.5 4-4a8 8 0 0 0 6.5 6q1.8 7 4.5 14 .5-1.8 2-3l14.5 2.5a58 58 0 0 1 16.5 13.5q.6-.4.5-1"
    style="opacity: 1"
  />
  <path
    fill="#1b2c33"
    d="M986.5 356.5q-1.7-1.3 0-2.5-3.6-2 0-3l-11.5-6.5a13 13 0 0 0-5.5-1q20-2.9 38-13a78 78 0 0 0 37.5-60q2.8-30.1-11-57a216 216 0 0 0-44.5-59.5 94 94 0 0 0-83-21.5 97 97 0 0 0-58.5 44q-12 20-19 42a371 371 0 0 0-14.5 75q-2 7.2-2 15-4.5 56.6-10 113-1.5 8.8-5 17 6.3-.5 12 1h-13q-.3-4.5 2-8.5-1.2-5.4-1-10.5 6-22-5.5-42a6 6 0 0 1-1.5 3q.4-23.8 3-47.5l-1-3.5q-13.2 5.9-26 12.5-10.7 6.6-6.5 18.5 12.5 30.3 23.5 61 .2 1-.5 2-6 .6-11.5-2 1.5-4.2-.5-8a7 7 0 0 1-1.5 3q-1-.2-1-1-7.8-24-18-47a23 23 0 0 0-17-18q-4.2-3-9.5-5-1.8.6-3.5 1.5l2 1q-4.5 1.3-9-.5a11 11 0 0 0-11-5q-10 1-19.5 4l-8-2q-4.5.7-9 1-10.5-.5-18.5-3.5l-11.5-.5q-12.4 1-25 0-7.8.5-15.5 2a10 10 0 0 0-.5 7q3.6-4 3.5 0-7.5 4.2-11.5 12-12.7 32.6-26 65-1 5.6.5 11v1q-2 2.5 1 4.5l-4.5 3.5a52 52 0 0 0-16.5-2q0-3.7 3-6l-.5-1a9 9 0 0 1-4.5 2 37 37 0 0 0 9.5-13l28-70q.8-2.4.5-5 .7-5.9-4-9.5-26.4-10.3-53-20a35 35 0 0 0-24 4 765 765 0 0 0-16.5 20.5l-57 80a19 19 0 0 0-.5 13q.2 3.3 2 6-.5 2.3 0 4.5 1.6 2.4 4 4-1.9 1.7-3.5.5.5 3.9 4.5 6 1.2-2.6 3.5-2 3.1 2.2 2.5 5 1-.8 1.5-2 .8 2.7-1 5a7 7 0 0 0-4.5-1l-9-5.5q-5.6-2-5 4 .9 4.8 2 9.5a83 83 0 0 0-6.5 8l-1-2q-1 2-2 0-2.1 8 5.5 10v3a8 8 0 0 0-5 0q.3-1.5-1.5-3-.7 1-.5 2a56 56 0 0 1-9.5-62q39.5-57 80-113 16.4-17.9 40.5-21.5 101.4-6.6 203-10l75 11.5a354 354 0 0 1 24.5-108q18-42 57.5-65.5 79.6-32.3 136.5 32.5a252 252 0 0 1 41 68q20.2 68.4-33.5 114.5a116 116 0 0 1-37 16.5"
    style="opacity: 1"
  />
  <path
    fill="#afdcf6"
    d="M577.5 353.5q-24.5-11.3-50-20.5-11.5-3-23 0-5.7 2-9.5 6.5-25.5 36.3-51.5 72l-6 9a368 368 0 0 0-15 21q-2-6.4.5-13l57-80q8.1-10.5 16.5-20.5a35 35 0 0 1 24-4q26.6 9.7 53 20a10 10 0 0 1 4 9.5"
    style="opacity: 1"
  />
  <path fill="#83a7b8" d="M617.5 308.5a129 129 0 0 1-28 2q13.8-1.5 28-2" style="opacity: 1" />
  <path fill="#308352" d="M814.5 293.5v8l-2 7q0-7.8 2-15" style="opacity: 1" />
  <path
    fill="#b6e0f8"
    d="M782.5 313.5a25 25 0 0 1-2 7.5q-13.5 7.2-26 13-5.4 1.8-11 3-68.7 0-137 .5-7.5-.6-14.5-3-1.6 3.6-1.5-1-3.4.4-6-2-2.6 1.6-2-2-6-.3-12-1.5-6.4-3-2-8l-1-1a19 19 0 0 0 5-3q-1.2-.5-2-1.5l7.5-2q.4 1.2 1.5 2 4.7-.7 9-2.5a61 61 0 0 0-11-.5q5.7-1.5 12-1 14.4.5 28-2l89-5q38.2 3.4 76 10"
    style="opacity: 1"
  />
  <path
    fill="#34b95d"
    d="M983.5 293.5q5.2 1.2 11 1.5-4.8.9-1 3l-4 2q4 1.5 3 5 9 5 3 13 5.5 5.5 13 7.5l-4 2.5q2.4.3 3 2.5-18 10.1-38 13-37.5 2.3-70-16.5-9.9-6.2-18-14.5.1-.9 1-1.5-5-2-2-6.5 5.2-.6 10 0 3.5-.2 6.5-2 12.8 1.9 25.5 4l7-1.5-2-1q-.9-2.4 2-4-2.8-1.5-1-4a13 13 0 0 1 5-.5 38 38 0 0 0 32-9q8.1 6 18 7"
    style="opacity: 1"
  />
  <path
    fill="#37b95d"
    d="M906.5 132.5q1.2 3 3.5 1 3 1.2 6.5 1.5a35 35 0 0 1-10 5l4 1q2 1.5 0 3a13 13 0 0 1-5 .5q-.2 2 1 3.5-2.6 3-6 4.5H893q-1.5-.6-2-2-.5 2.3-2 4a15 15 0 0 0-15.5.5l1 1q-3.3 5 0 9.5a28 28 0 0 0-1.5 5q-3 .3-6 0-1.8 5.5-7 3a10 10 0 0 0-5.5 6q2.6 7.5-3 13l-1 5q.2 20-1.5 40-2.2-5.5-4 1l-2-4q-.5 3.1-2 6h-6a23 23 0 0 0-3 7l-5 2-1.5 8q.5 2.3 2 4a21 21 0 0 0-1 17 51 51 0 0 1 5.5 4l1-1q1.6 3.8 2 8 .2-3.8 2-7 1.5 3 4 1 .8 7.2 4 1 .6 1.5 1.5 2.5a20 20 0 0 0 16.5.5l6 2q1.7 1.9.5 3.5 1.2.5 2 1.5-1.9 3-4 5.5 1.7 1.5-1 2a57 57 0 0 1 2 16.5q0 .6-.5 1a58 58 0 0 0-16.5-13.5l-14.5-2.5q-1.5 1.2-2 3-2.7-7-4.5-14a8 8 0 0 1-6.5-6q-2.5 1.5-4 4l-1-2a16 16 0 0 0-.5 9.5q-3.3 9.2-2.5 18.5a52 52 0 0 1-1.5-15v-8q3.3-38.2 14.5-75 7-22 19-42a97 97 0 0 1 58.5-44"
    style="opacity: 1"
  />
  <path
    fill="#36b45d"
    d="M1007.5 330.5q-.6-2.1-3-2.5l4-2.5q-7.5-2-13-7.5 6-8-3-13 1-3.5-3-5l4-2q-3.8-2.1 1-3-5.8-.3-11-1.5 16.5 1.4 27.5-11 2-5.5-3.5-7-5.3 4-11 7.5-9 2.3-18 1a95 95 0 0 1-13.5-8.5l-2.5.5a28 28 0 0 1-29 11 44 44 0 0 1-13-9 13 13 0 0 0-5-.5 12.6 12.6 0 0 0 8 13.5l10 4.5a13 13 0 0 0-5 .5q-1.8 2.5 1 4-2.9 1.6-2 4l2 1-7 1.5q-12.7-2.1-25.5-4-3 1.8-6.5 2-4.8-.6-10 0-3 4.5 2 6.5-.9.6-1 1.5-10.7-3.3-10 8-1-1.5-3-2a57 57 0 0 0-2-16.5q2.7-.5 1-2 2.1-2.5 4-5.5a5 5 0 0 0-2-1.5q1.2-1.5-.5-3.5l-6-2q-8.6 3.3-16.5-.5a10 10 0 0 1-1.5-2.5q-3.2 6.2-4-1-2.5 2-4-1a16 16 0 0 0-2 7q-.4-4.2-2-8l-1 1a51 51 0 0 0-5.5-4 21 21 0 0 1 1-17 8 8 0 0 1-2-4l1.5-8 5-2q.9-3.8 3-7h6q1.5-2.9 2-6l2 4q1.8-6.5 4-1 1.7-20 1.5-40l1-5q5.6-5.5 3-13 1.5-4.2 5.5-6 5.2 2.5 7-3 3 .3 6 0a28 28 0 0 1 1.5-5q-3.3-4.5 0-9.5l-1-1q7.7-4.4 15.5-.5 1.5-1.7 2-4 .5 1.4 2 2h7.5q3.4-1.6 6-4.5-1.2-1.5-1-3.5 2.6.3 5-.5 2-1.5 0-3l-4-1q6-2 10-5-3.4-.3-6.5-1.5-2.4 2-3.5-1 46.5-9.3 83 21.5a216 216 0 0 1 44.5 59.5 101 101 0 0 1 11 57 78 78 0 0 1-37.5 60"
    style="opacity: 1"
  />
  <path
    fill="#1c2e34"
    d="M983.5 293.5q-9.9-1-18-7a38 38 0 0 1-32 9l-10-4.5a12.6 12.6 0 0 1-8-13.5 13 13 0 0 1 5 .5 44 44 0 0 0 13 9q18 3.3 29-11l2.5-.5a95 95 0 0 0 13.5 8.5q9 1.3 18-1 5.7-3.5 11-7.5 5.4 1.5 3.5 7a32 32 0 0 1-27.5 11"
    style="opacity: 1"
  />
  <path
    fill="#1c2d34"
    d="M1009.5 228.5q23.4-1.3 22.5 22-8 18.3-26.5 10.5-11.2-11-4.5-25.5 4-4 8.5-7"
    style="opacity: 1"
  />
  <path
    fill="#1a2b32"
    d="M889.5 225.5q28.2-1.2 21.5 26-9.7 14.3-25.5 7.5a19.5 19.5 0 0 1-7.5-22.5q4.1-7.4 11.5-11"
    style="opacity: 1"
  />
  <path
    fill="#31bb50"
    d="M883.5 334.5a126 126 0 0 0 62 24 436 436 0 0 1-1 40 112 112 0 0 0-2 15q-1 11.5-4 22-.3-6-1.5 0a50 50 0 0 0-2 11l-1-7q-1.1-1.7-2.5 0-5.2-8.5-11.5-16a41 41 0 0 1-8.5-6.5q-5.5-.7-11 .5l-13.5-3q-12.3 3.8-24.5 8a11 11 0 0 1-4.5-3q-2-11.2-5.5-22-.5-10 4-19.5 4.5-3 9-5.5 1.8 4.7 4.5 1 1 5.7 7 6 1.1 15.6 16 15 8.3-9.8-4.5-12.5-2.2-6-8-4.5a15 15 0 0 0-3.5-3l-1 1-1-7-1 1q-6-3.9-4.5-10.5a16 16 0 0 1-2.5-4.5q-2 3.6-3 0l-2 4q-5.2-.7-1.5-3.5a39 39 0 0 1-4.5-4.5q-.9-2 .5-4-1.3-3-2-6a7 7 0 0 0 4-6 6 6 0 0 0 5-3q-2-1.8.5-3 1.3 1.8 2.5 0a7 7 0 0 0-3-1.5l3.5-2.5q1.7 1.5 3 0 4 6.9 10.5 11.5 2 .3 3-1.5"
    style="opacity: 1"
  />
  <path
    fill="#56b4ec"
    d="M577.5 353.5a13 13 0 0 1-.5 5l-28 70a37 37 0 0 1-9.5 13q-29.4 9.8-59 19 1.6-2.4-2-2.5 3-1.5 5-4l-1-1 3-1a36 36 0 0 0-4-4.5 33 33 0 0 1 2-20.5q-3.6-6.2-8.5-11.5-1 1.3-2.5 2-2.2-1.8-4.5 0l-1-2-2 4q-3 .3-6 0-2.5 3-6 0a14 14 0 0 0-4 3 8 8 0 0 1-2-4l-1 4q-1.4-3.2-2.5-6.5 3.8-2.2 0-4.5 26.1-35.7 51.5-72 3.9-4.5 9.5-6.5 11.5-3 23 0 25.5 9.2 50 20.5"
    style="opacity: 1"
  />
  <path
    fill="#b4ddef"
    d="M577.5 311.5a61 61 0 0 1 11 .5q-4.3 1.8-9 2.5a5 5 0 0 1-1.5-2l-7.5 2q.8 1 2 1.5a19 19 0 0 1-5 3l1 1q-4.4 5 2 8 6 1.2 12 1.5-.6 3.6 2 2a7 7 0 0 0 6 2q0 4.6 1.5 1 7 2.4 14.5 3 68.3-.5 137-.5 5.6-1.2 11-3 12.5-5.8 26-13a25 25 0 0 0 2-7.5q5.7-.6 10.5 2 1 1.5-.5 2.5-16.7 7.5-33 16a72 72 0 0 1-18 6q-72 1-144 0-31.5-7.8-60.5-21.5-1.5-4.1 2.5-5.5z"
    style="opacity: 1"
  />
  <path
    fill="#182531"
    d="M733.5 351.5h-135q.1-4-3.5 0-1-3.6.5-7 7.7-1.5 15.5-2 12.6 1 25 0l11.5.5q7.9 3 18.5 3.5 4.5-.3 9-1l8 2q9.4-3 19.5-4a11 11 0 0 1 11 5q4.5 1.8 9 .5l-2-1q1.7-.9 3.5-1.5 5.4 2 9.5 5"
    style="opacity: 1"
  />
  <path
    fill="#1f7fc9"
    d="M790.5 381.5q-2.1 13.2-2.5 27l-3 15q-.6-.9-1.5-1-11-30.7-23.5-61-4.2-12 6.5-18.5 12.8-6.6 26-12.5l1 3.5a510 510 0 0 0-3 47.5"
    style="opacity: 1"
  />
  <path
    fill="#32c051"
    d="M854.5 340.5q.7 3 2 6a4 4 0 0 0-.5 4 39 39 0 0 0 4.5 4.5q-3.7 2.8 1.5 3.5l2-4q1 3.6 3 0a16 16 0 0 0 2.5 4.5q-1.5 6.6 4.5 10.5l1-1 1 7 1-1a15 15 0 0 1 3.5 3q5.8-1.5 8 4.5 12.8 2.7 4.5 12.5-14.9.6-16-15-6-.3-7-6-2.7 3.7-4.5-1-4.5 2.6-9 5.5-4.5 9.5-4 19.5 3.5 10.8 5.5 22a11 11 0 0 0 4.5 3q12.2-4.2 24.5-8l13.5 3q5.5-1.2 11-.5a41 41 0 0 0 8.5 6.5q6.3 7.5 11.5 16 1.5-1.7 2.5 0l1 7q.3-5.4 2-11 1.2-6 1.5 0a76 76 0 0 1-3 19q-11.1.5-22-1v-1q-3-4-7-7a36 36 0 0 0-28-5.5 42 42 0 0 0-12.5 5.5 37 37 0 0 0-13.5-5q-15-3.3-29 4-6.8-3-14-5-5.7-1.5-12-1 3.5-8.2 5-17 2-4.3 3.5-9l1-23 1 9a70 70 0 0 0 3-20l1 10q1.3-12.3 3.5-24.5-1-5.5-1-10.5 2.3-7.3 3-15 1.5-2.9 4-5l9.5 5q.4-1.2 1.5-2a22 22 0 0 1 2.5 9q.1-9.2 2-18 .4 3.5 3 2 1.3 6.4 3 1 1.1 1.7 2.5 0a11 11 0 0 0 6 5q1.8 2.4 3 5"
    style="opacity: 1"
  />
  <path
    fill="#afdbf4"
    d="M598.5 351.5h135a23 23 0 0 1 17 18 25 25 0 0 0-15-10.5q-65-1-130 0-7.5 2.6-12.5 8.5-12 27.4-23.5 55a72 72 0 0 0-5.5 15q-.6 2-2.5 2-1.5-5.4-.5-11 13.3-32.4 26-65 4-7.8 11.5-12"
    style="opacity: 1"
  />
  <path
    fill="#56b4ec"
    d="M750.5 369.5q10.2 23 18 47-2.4-.9-5-1.5-26-.8-52-.5 19.2-1.2 39-1.5-8.5-.8-16-2-2-1.5 0-3l-2-1q2.3-1.5 5-1.5 0-4.5 4-6.5a400 400 0 0 0-10.5-20.5 99 99 0 0 1-22.5-10.5q-3.7-1.4-2-4.5-2.4-1.2-5-1.5a30 30 0 0 1 9-2q-17.2-.6-34-.5-1.2.5-2 1.5l6 1a13 13 0 0 0-3 5.5q-3.3.9-6 3a37 37 0 0 0-21-3.5q-6-3.8-13-5l4-1a51 51 0 0 0-21 0l2 1q-6.2 3-12.5 6.5a10 10 0 0 0-1.5 7q1.4 7.7 2 15.5a13 13 0 0 1-2 7.5q-2-2-4 0a7 7 0 0 1-1.5-3l-2 6q-1-2.5-3.5-1.5a10 10 0 0 0-4 5 16 16 0 0 0-11 10.5q.8 1 2 1.5a6 6 0 0 1-5 1.5 29 29 0 0 0-3.5 6l-1-3q-.5 2.3-2 4-2.4-1.5-3.5-3 11.6-27.6 23.5-55 5-6 12.5-8.5 65-1 130 0a25 25 0 0 1 15 10.5"
    style="opacity: 1"
  />
  <path
    fill="#52aeec"
    d="M711.5 414.5a6 6 0 0 0-5 2 14 14 0 0 0-9.5 9q-.8 27-.5 54a227 227 0 0 0-25 9.5 39 39 0 0 1-16 1 7580 7580 0 0 1-88-43q-3.3-3-6-6.5v-1q1.8 0 2.5-2a72 72 0 0 1 5.5-15q1 1.5 3.5 3 1.5-1.7 2-4l1 3q1.4-3.2 3.5-6a6 6 0 0 0 5-1.5q-1.2-.5-2-1.5 2.8-8 11-10.5 1.1-3.2 4-5 2.4-1 3.5 1.5l2-6q.3 1.7 1.5 3 2-2 4 0a13 13 0 0 0 2-7.5q-.6-7.8-2-15.5-.6-3.6 1.5-7 6.3-3.5 12.5-6.5l-2-1a51 51 0 0 1 21 0l-4 1q7 1.2 13 5 11-1.5 21 3.5 2.7-2.1 6-3a13 13 0 0 1 3-5.5l-6-1q.8-1 2-1.5 16.8-.2 34 .5a30 30 0 0 0-9 2q2.6.3 5 1.5-1.7 3 2 4.5a99 99 0 0 0 22.5 10.5 400 400 0 0 1 10.5 20.5 6.5 6.5 0 0 0-4 6.5q-2.7 0-5 1.5l2 1q-2 1.5 0 3 7.5 1.2 16 2-19.8.3-39 1.5"
    style="opacity: 1"
  />
  <path
    fill="#1b2b38"
    d="M809.5 439.5q-6.7 1.2-14 1.5a18 18 0 0 1-3 7q1 .7 2 .5-2.1 1.5-5 2a7 7 0 0 0-5-4.5l2-1-2-10.5q-8.6-3-17-3-.3 4.9-2.5 1l-3 2q-1 15 0 30l1.5 4-.5 9q-3.2 1.8.5 2.5l-2 1q2.3 2.7 2 6.5a60 60 0 0 0 1 34l2-3q1.5 3.4 1 7h-4q0 7.7-2 15 .5 3.8 2 7.5a25 25 0 0 0-2 11q.3 2.8 2 5l-1.5 4.5q-.3 38.7-1.5 77v-217q2.3-5.5 8-3-1.7 1.5 0 2.5 2.9 1.1 5-1a8 8 0 0 0-4-.5q.5-5.5-2-8h-52q-8.1 1-10 9-2.4 1.2-4.5 3l-1 23q-1.2-13 .5-26 3.7-3 4-7 1.8-1.6 4-2.5a4 4 0 0 0-2-1.5 6 6 0 0 1 5-2q26-.3 52 .5 2.6.6 5 1.5 0 .8 1 1 1.2-1.3 1.5-3a10 10 0 0 1 .5 8q5.6 2.6 11.5 2 .7-1 .5-2 .9.1 1.5 1l3-15q.3-13.8 2.5-27 1.2-1.2 1.5-3a53 53 0 0 1 5.5 42q-.2 5.1 1 10.5a15 15 0 0 0-2 8.5z"
    style="opacity: 1"
  />
  <path fill="#1c5237" d="M944.5 398.5q.6 8-2 15 .5-7.8 2-15" style="opacity: 1" />
  <path
    fill="#55afed"
    d="M443.5 411.5q3.8 2.3 0 4.5l2.5 6.5 1-4q.5 2.3 2 4a14 14 0 0 1 4-3q3.5 3 6 0 3 .3 6 0l2-4 1 2q2.3-1.8 4.5 0 1.5-.7 2.5-2 4.8 5.4 8.5 11.5a33 33 0 0 0-2 20.5q2.1 2.1 4 4.5l-3 1 1 1q-2 2.5-5 4 3.6.1 2 2.5-1 1.3-3 1-.9-.1-1.5-1a16 16 0 0 1-10.5 2q1.3-1.2 3-1.5l-11-1q-3.6-.8-3-4.5-7.5 0-12-6a46 46 0 0 1 1-7q-.7-9.7-3-19-5.2.3-1-2.5-1-.7-2-.5z"
    style="opacity: 1"
  />
  <path
    fill="#57b4ec"
    d="M437.5 420.5q1-.2 2 .5-4.2 2.9 1 2.5 2.3 9.3 3 19a46 46 0 0 0-1 7q4.5 6 12 6-.6 3.7 3 4.5l11 1q-1.7.3-3 1.5a16 16 0 0 0 10.5-2q.6.9 1.5 1-12.5 6.3-26 5 1 .2 2-.5-11.2-6-21-14-1.5-1-2 .5l-6-5a11 11 0 0 1-2-6 368 368 0 0 1 15-21"
    style="opacity: 1"
  />
  <path
    fill="#1d2c34"
    d="M706.5 416.5q1.2.5 2 1.5-2.2.9-4 2.5-.3 4-4 7-1.7 13-.5 26l1-23q2.1-1.8 4.5-3-2 6-1 12a3 3 0 0 0 3 1l2 12q-1 6-1.5 12a3 3 0 0 1-3.5 2 178 178 0 0 0-5 15.5q1.5 3 2.5 6.5l1-1q4.2 9 0 18l-1-4q-.4 7.5-2 15-1.2-14-1.5 0l.5 7 1-5q1.2 6 3.5 11.5a8 8 0 0 0-1.5 7.5l1-1a84 84 0 0 0 3.5 16.5 56 56 0 0 1-6.5 16.5l-1-7-1 24a6 6 0 0 0-1.5-3q.5-46.5-1-93-1 .2-1 1-13.2 4-23.5 13-2.5 3.5-2.5 8 6 39.4 11.5 79a9 9 0 0 0 3.5 7q-4-.7-7.5-3-3.5 1-6.5 3.5l-1-1q3.9-3.3 3-8.5h-3q-4.7-40.1-11.5-80-3.6-6.2-8.5-11.5l-13-5.5q-29.2-14.9-59-29-14.6-7.7-30-13-38.3 11.7-76 25.5a15 15 0 0 0-5.5 16.5 539 539 0 0 0 15.5 44q4.5 14.7 10 29 3-6.8 7-13 1.2 1.2 3 1.5a47 47 0 0 1-4 6q2.7 1.6 1.5 4.5l-1-3a65 65 0 0 1-7 19l-1-4q-.4 4.2-2 8l-1-3a9 9 0 0 1-1.5 4q0-3.1-2-5.5-29-1.8-58-3a33 33 0 0 0-7 19.5h14q-11.5 1-22.5 1a13 13 0 0 1-1.5-8q1.5-6.6 3.5-13l6.5-10.5q-2.5-15.9-7-31.5l-2.5-1-91.5 13 1 12a9 9 0 0 0-1.5 4q-1-5.7-3-11a17 17 0 0 0 2.5 17.5q-.8 3.3-3.5 5.5-1.8-7-3-13 .3 5.2-.5 10l-5-28q-.3-3.3 2-5.5l98-13.5a75 75 0 0 1 9-22q-2.5-4.3-4-9-.2-1 .5-2 1.8 1.5 1.5 3 2.3-.9 5 0v-3q-7.5-2-5.5-10 1 2 2 0l1 2q3-4.4 6.5-8l48 90q5 1.5 10 1 .3-3-.5-6a1721 1721 0 0 0-27-76 64 64 0 0 0-18.5-17q2.4-.3 4.5 1a5 5 0 0 0 1-5q-.5 1.2-1.5 2 .6-2.8-2.5-5-2.3-.6-3.5 2-4-2.1-4.5-6 1.5 1.2 3.5-.5a17 17 0 0 1-4-4q-.5-2.2 0-4.5l6 5q9.8 8.2 21 14 13.5 1.3 26-5 2 .3 3-1 29.6-9.2 59-19 2.6-.5 4.5-2l.5 1q-3 2.3-3 6 8.4-.4 16.5 2l4.5-3.5q-3-2-1-4.5 2.7 3.4 6 6.5a7580 7580 0 0 0 88 43 39 39 0 0 0 16-1 227 227 0 0 1 25-9.5q-.3-27 .5-54 2.7-6.9 9.5-9"
    style="opacity: 1"
  />
  <path
    fill="#1875c0"
    d="M576.5 463.5q-1 2 0 3.5 11.6 5.6 22.5 11.5.7-.7 1.5-1a94 94 0 0 0 19 10.5q-2 2 .5 3.5 1-4 2 0 6.3-.9 12.5 2 1-.2 1-1l13 5.5q4.8 5.4 8.5 11.5 6.8 39.9 11.5 80 1.2 6-4 9a67 67 0 0 1-9-6q-8.6-71.4-80-80.5a89 89 0 0 0-60 17.5q0-.8-1-1a21 21 0 0 1-5.5 3q-.9-5.7-3 0-3-3.6-7-6-2.4 2.5-5 1a10 10 0 0 0-7.5 9q-1.5-1.7-2.5 0-2.6-3.7-3.5 1a539 539 0 0 1-15.5-44q-2.6-10 5.5-16.5 37.7-13.8 76-25.5 15.4 5.3 30 13"
    style="opacity: 1"
  />
  <path
    fill="#9ed4e8"
    d="M430.5 452.5q.5-1.5 2-.5 9.8 8 21 14-1 .7-2 .5-11.2-5.8-21-14"
    style="opacity: 1"
  />
  <path
    fill="#1c2c37"
    d="M881.5 312.5a96 96 0 0 0 18 14.5q32.5 18.8 70 16.5 2.8 0 5.5 1l11.5 6.5q-3.6 1 0 3-1.7 1.2 0 2.5a69 69 0 0 1-24 3q-.6 48-10 95-.1.9-1 1.5 1.8.7 2.5 2.5 3.6-2.5 7.5-1a15 15 0 0 1-3 3.5 24 24 0 0 0 19 0q-5-2.5-10-4 12.5-1 25 0-3.4 1.5-6 4l4 1-1 1q13.5.8 27 .5.5-6.7 6.5-4 1.2 3.3-1.5 5.5 1 3.7 1 7.5-.8 1.8-2 3.5.7 2.7 1.5-.5l.5 1.5q-1.7 4-5 4.5-1.8-.5 0-1.5-5-1-10 0l3 1q-2 1.5 0 2.5v28q21.7-.6 18.5 21a16 16 0 0 1-6.5 8q-.6-5.2-4.5-1-4.1-1.2-8.5-1.5a26 26 0 0 0-4-4.5l1.5-1 9 3 2-3q0 2 3 3 4.3-3 1-7l-1 2q-1.5-8.8-3.5-1v-3q.3-2.8-2-4.5-12-.8-24-.5-1 .5-1.5 2-1-2 .5-3.5-2.4-1-3.5 1.5a76 76 0 0 1-3.5-7.5q-2-.3-4 .5l-5-4a13 13 0 0 0-12-4 21 21 0 0 0-15 5l-2-1a15 15 0 0 0-3.5 4q.3-4.5 2.5-8.5-1.2-1.5-3-2 1.5-.5 2-1.5 17.4-11.2 36-1.5 6 4 10 10 3.4.8 7 .5.5-14.2-1-28 .2-1.3-1-2a9 9 0 0 1-8-.5l6-1q-7.3 0-13.5-3.5-2.4 1-4.5 2.5-12 1-24 0-5-3.3-11-4 1.5-.5 2-1.5 4.4.5 8-1 34 .5 68-1 1.8-2.7 0-5-.1-.9-1-1.5-50-.8-100-.5-4-2.5-5.5 2-1-2-2 0-.4-3-1.5-5.5 1.8-3.2 2.5.5l2-2 7 3q5.9-3.3 12.5-4.5-9.4-1.5-19-2.5-4.5-4.5 1-3v1q5 2 11 2 5.7 0 11-1a76 76 0 0 0 3-19q3-10.5 4-22 2.6-7 2-15a436 436 0 0 0 1-40 126 126 0 0 1-62-24q-6.6-6.5-12-14-.7-11.3 10-8"
    style="opacity: 1"
  />
  <path
    fill="#1875bf"
    d="M431.5 467.5a64 64 0 0 1 18.5 17 1721 1721 0 0 1 27 76q.8 3 .5 6-5 .5-10-1l-48-90q-1.1-4.7-2-9.5-.6-6 5-4z"
    style="opacity: 1"
  />
  <path
    fill="#1d7dc2"
    d="M576.5 463.5q29.8 14.1 59 29 0 .8-1 1a22 22 0 0 0-12.5-2q-1-4-2 0-2.4-1.5-.5-3.5a94 94 0 0 1-19-10.5q-.8.3-1.5 1-11-6-22.5-11.5-1-1.5 0-3.5"
    style="opacity: 1"
  />
  <path
    fill="#1774bf"
    d="M694.5 491.5q1.5 53.3 1 107-6 1.8-12 0a9 9 0 0 1-3.5-7 5674 5674 0 0 0-11.5-79q0-4.5 2.5-8 10.3-9 23.5-13"
    style="opacity: 1"
  />
  <path
    fill="#136fbe"
    d="M515.5 529.5q-5.5 6.2-11.5 12-3.6 5.4-6.5 11-4 6.2-7 13-5.5-14.3-10-29 1-4.7 3.5-1 1.1-1.7 2.5 0 .9-6.9 7.5-9 2.6 1.5 5-1 4 2.4 7 6 2.1-5.7 3 0 3-1 5.5-3 1 .2 1 1"
    style="opacity: 1"
  />
  <path
    fill="#1d5583"
    d="M694.5 491.5q0-.8 1-1 1.5 46.5 1 93 .5 7.8-1 15 .5-53.7-1-107"
    style="opacity: 1"
  />
  <path
    fill="#f5f6f6"
    d="M407.5 589.5q-1.2 1.8-2 4l-4-15a458 458 0 0 0-5-28q-6.9 2-14 2l1 15q-7.5.4-15 1.5-1.5 3.7 0 7.5-7.8.5-15 2-3.5-11-5-23l-15 1q6.3 31.3 11 63-4.5-12.3-7-26a212 212 0 0 0-7.5-32 280 280 0 0 0 6.5 34q3 13 5 26l31-3 22.5-3q2.5.2 3.5 2l-11.5 34q-13.3 2.7-26.5 4h-2q-11 1.5-22 1.5a10 10 0 0 1-1.5-2.5q-8.6-48.3-17.5-96l-1-12 91.5-13 2.5 1q4.5 15.6 7 31.5l-6.5 10.5q-2 6.4-3.5 13"
    style="opacity: 1"
  />
  <path
    fill="#048747"
    d="M422.5 522.5q2.1 1.5 3.5 4a1013 1013 0 0 0 19.5 38 21 21 0 0 1-12.5 0 188 188 0 0 0-10.5-42"
    style="opacity: 1"
  />
  <path
    fill="#72c23a"
    d="M401.5 578.5q-1-.5-1.5-2-.9 3-3 1-1 1.3-2.5 2a16 16 0 0 1-4.5-7l-1 1a12 12 0 0 1-3-7q-.8 3-.5 6l-2-5-1-15q7.1 0 14-2a458 458 0 0 1 5 28"
    style="opacity: 1"
  />
  <path
    fill="#1a2b32"
    d="M308.5 571.5q.9-4.8.5-10 1.2 6 3 13 2.7-2 3.5-5.5-6-8-2.5-17.5 2 5.3 3 11 .3-2.4 1.5-4 9 47.7 17.5 96 .6 1.5 1.5 2.5 11 0 22-1.5v3q-4.5.5-8.5-1-.6 1.5-1.5 2.5-5 .3-10 1.5a7 7 0 0 1-4.5-5l-1.5 4.5q.5 1.5 2 1.5-1.3 1.2-3 1.5l1 1q-3.3 4.7-7 9 2.7 7.2 10 5l-2-1a12 12 0 0 0 3.5-8.5q1.3 2 1.5-.5-.2-2.6-2-.5-1.2-.4-2-1.5 2.4-.4 4.5-1.5 2.1 1.3 4.5 1 0-4.6 1.5-1 .5-2.7 2-1 13.5-2.7 27.5-.5 2.6 1.6 2 3.5v1q-12.6.6-25 3a89 89 0 0 0 20 7q43 13 88 15.5 30-12.7 62-7 14 2.6 28 4.5 15.5 4.4 32 4.5 27-23.7 60-9a72 72 0 0 1 9 7q22 2 44 3-12.7-2.1-22.5-10.5l-2-4a313 313 0 0 1-.5-25q6-14.5 22-14h5v-9h-18q-11.7 0-23-3-.9 12-3 24a45 45 0 0 1-33 21.5 251 251 0 0 1-70 3.5 142 142 0 0 1-42-10.5 105 105 0 0 1-10-6.5q-2-4-5-7-5 1.2-10 1.5a131 131 0 0 1-7.5 16.5 32 32 0 0 1-7.5 5.5q-8.5 1-17 0a465 465 0 0 1-51-6.5q3.9-1.5 0-3.5 2.3-3 5-5.5-4.7-.7-9.5-4-.9-4.5 1.5-6-.7 5 4 6.5 29 2.6 58 6.5 3.6 0 5.5-3a434 434 0 0 0 7.5-28 101 101 0 0 0 6-27q-26.6-1.5-53-5-.2-1 .5-2h13l1-2q2.5 4.3 7 2 5 3.1 10.5 1a5 5 0 0 0-2-1.5l1-1-8-1q6-1.2 11.5.5.7-1 .5-2 9 2 18 1.5a143 143 0 0 0 8.5-18.5l1 3q1.6-3.8 2-8l1 4a65 65 0 0 0 7-19l1 3q1.2-3-1.5-4.5 2.2-2.8 4-6a6 6 0 0 1-3-1.5q2.9-5.6 6.5-11 6-5.8 11.5-12a89 89 0 0 1 60-17.5q71.4 9.1 80 80.5a67 67 0 0 0 9 6q5.2-3 4-9h3q.9 5.2-3 8.5l1 1q3-2.6 6.5-3.5 3.4 2.3 7.5 3 6 1.8 12 0 1.5-7.2 1-15 1.2 1.2 1.5 3l1-24 1 7q4.2-6.9 6.5-16.5a84 84 0 0 1-3.5-16.5l-1 1a8 8 0 0 1 1.5-7.5 64 64 0 0 1-3.5-11.5l-1 5-.5-7q.3-14 1.5 0 1.6-7.5 2-15l1 4q4.2-9 0-18l-1 1a38 38 0 0 0-2.5-6.5 178 178 0 0 1 5-15.5q2.4.2 3.5-2 .4-6 1.5-12l-2-12a3 3 0 0 1-3-1q-1-6 1-12 1.9-8 10-9h52q2.5 2.5 2 8 2-.3 4 .5a4 4 0 0 1-5 1q-1.7-1.1 0-2.5-5.7-2.5-8 3v-1q-23.3-1.5-47-1-.5 109.8 1 219l6 2q-2.4.9-5 1 5.8 2 11 5.5-5.8 1-11.5-.5-2.6-.1-3.5 2l-7-2q-8.4 2-17 3h-3v24q21 6.3 42 12 3 .5 5-1 28-2.8 56-7v-24h-8q-3.4-1-7-1 3.7-1.2 8-1.5-4.8-.5-8-4 1-.7 2-.5 3.8 4.9 9 .5l-5-1q25.2-.3 50-1.5h12v-11q3.4 1.6 6.5 4l1-1q.8 5 .5 10a6 6 0 0 1-5-2 5 5 0 0 0-1.5 6q4.5 4.3 10 4 3.3 2.8 5.5 6.5 4.3 3.3 4-1.5 14 4.2 24-6 1.5-.2 3 .5-3 2.6-5 6a7 7 0 0 0-5 .5q-1.2 4.1-3 8 .3.8 1 1.5-1.8.5-3 2 14 .8 28 .5.3-5.4 3 0a135 135 0 0 0 17 2 35 35 0 0 1-8.5 1q-42.2-1.6-84.5-1.5a45 45 0 0 1 24 11.5q2.1 3.9 5 7.5l50 1q15.8.6 31.5 3.5 30.6-9 62.5-9 8.6.5 17-1a3 3 0 0 0-3-1q-8-2.3-16-4l-9-4q.6 0 1-.5-1.2-1.5-3-2l4-3q-2-2.7.5-1.5l1.5-1.5q-1-1.5 0-3.5 23.7 7.5 48 13h1q.9 1 2.5 1 27.8-4.3 55.5-8v-25h-3q-11.3-2.7-23-4-2.4.5-4-1 1.7-3 5.5-3 5.6 2 10.5-.5l-2-1q3.3-3.8 8-5a7 7 0 0 1-3-1.5q1.8-1.8 0-3.5 4-1.5 8-2-7.5-.6-15-2.5a41 41 0 0 0-5 7q-4.5 1.2-9 1.5l-2.5 2.5-1-215q-.3 108.3-1.5 216v-217q-24.9-3-51-2-1.5 15.3-1 31 21 0 16.5 21a11 11 0 0 1-9.5 8h-9q-2-1 0-2.5l-3-1q5-1 10 0-1.8 1 0 1.5 3.3-.5 5-4.5l-.5-1.5q-.8 3.2-1.5.5 1.2-1.6 2-3.5 0-3.8-1-7.5 2.7-2.2 1.5-5.5-6-2.7-6.5 4-13.5.3-27-.5l1-1-4-1q2.6-2.5 6-4-12.5-1-25 0 5 1.5 10 4a24 24 0 0 1-19 0 15 15 0 0 0 3-3.5q-3.9-1.5-7.5 1-.7-1.8-2.5-2.5.9-.6 1-1.5h45q.4-17.5 1.5-35a18 18 0 0 1 11.5-10.5q30-1 60 0 7 2 10.5 8.5.8 26.5.5 53 61 1.3 122 4.5a29 29 0 0 1 23.5 20.5q-3.8 69.5-8 139 45.2 21.5-.5 42.5-33.6 12.2-68 21.5a47 47 0 0 1 32.5 44q1 19.5 0 39-7.2 41.2-48.5 48.5-369 1.5-738-1-40.7-11.2-42.5-53.5-2-24.3 3-48a45 45 0 0 1 27.5-28.5 1031 1031 0 0 1-71-23 42 42 0 0 1-19.5-17.5q-1.2-5.5 2-10a55 55 0 0 1 22.5-15l1-2q-6-30-11-60"
    style="opacity: 1"
  />
  <path
    fill="#6fcbf9"
    d="M369.5 628.5h15v3a516 516 0 0 1-41 4v-3q13.5-.8 26-4"
    style="opacity: 1"
  />
  <path
    fill="#f3f4f4"
    d="M617.5 629.5q14.4-2.7 18.5 11 2.6 10.1-4.5 17.5a138 138 0 0 1-19 6.5q-2.2-14-1.5-28 2.6-4.3 6.5-7"
    style="opacity: 1"
  />
  <path
    fill="#b2dfef"
    d="m423.5 628.5-2 9q-7-1-14-1 .5-5.6 2-11 5.8-.2 11.5 1 2 .3 2.5 2"
    style="opacity: 1"
  />
  <path
    fill="#1278b7"
    d="M424.5 604.5q26.4 3.5 53 5a101 101 0 0 1-6 27 7 7 0 0 0-3-4q3.8-2.7 0-5 1.8-5.3 2-11-.8-3-4-3-3.7-1.2-8-1.5l6-1q-7.3-.9-14.5-2.5-4.3 2.6-9.5 2a9 9 0 0 0-5.5 1 24 24 0 0 0-1.5 10q-1.3 1-1 3 .5 1 2 1.5-1.8.3-3 1.5h-1q-1.5-2-3 0a32 32 0 0 0-3 5q.5-2.5-1-4-.4-1.7-2.5-2-5.7-1.2-11.5-1-1.5 5.4-2 11 .4 1.7 2.5 2 6.2 1.3 12.5 1-6.5 2.2-14 2-2-.2-3.5 1a35 35 0 0 0-2.5 11v2q-4.5 1.4-4-4l15-46q5.4-1.5 11-1"
    style="opacity: 1"
  />
  <path
    fill="#21353d"
    d="M470.5 616.5q-.2 5.7-2 11-7.5.1-15-1v-3q7 1.5 14 0 1.2-3.8 3-7"
    style="opacity: 1"
  />
  <path
    fill="#243842"
    d="M449.5 612.5q1 .9 1 2.5l-3 9.5q-7.5 1.5-15 0-.3-2 1-3 6.5 1.5 13 0 1.8-4.5 3-9"
    style="opacity: 1"
  />
  <path
    fill="#1e3337"
    d="M428.5 611.5q1 .9 1 2.5a49 49 0 0 0-2 9.5q-7.5 0-15-1v-3q6.4 1.7 13 .5z"
    style="opacity: 1"
  />
  <path
    fill="#6ea2b5"
    d="M1198.5 501.5q6.6 6.5 12 14-4.1 58.5-8.5 117a10 10 0 0 1-10.5 4q-54-3.1-108-7v-13q52 3.2 104 4.5l1.5-1.5q4.6-59 9.5-118"
    style="opacity: 1"
  />
  <path
    fill="#ace0f4"
    d="m440.5 610.5 9 2q-1.2 4.5-3 9-6.5 1.5-13 0-.3-5.1 1.5-10a9 9 0 0 1 5.5-1"
    style="opacity: 1"
  />
  <path
    fill="#565f4f"
    d="M392.5 612.5q3.4 1.3 7 1 .5 2.5-1 4-1-1.8-3.5-2l-22.5 3v-1q1-1.3 3-1 9.1-1 17-4"
    style="opacity: 1"
  />
  <path fill="#af7e37" d="M759.5 427.5h1v224q-12.8.5-25-1h24z" style="opacity: 1" />
  <path
    fill="#287644"
    d="M636.5 606.5a51 51 0 0 1 0 20 3 3 0 0 1-2-2q3-8.4 2-18"
    style="opacity: 1"
  />
  <path
    fill="#bae4f6"
    d="M466.5 613.5q3.2 0 4 3a42 42 0 0 0-3 7q-7 1.5-14 0l2-10z"
    style="opacity: 1"
  />
  <path
    fill="#a7d9f0"
    d="m428.5 611.5-3 8.5q-6.6 1.2-13-.5.3-4.7 2-9l5.5-1q4.7-.2 8.5 2"
    style="opacity: 1"
  />
  <path
    fill="#28353c"
    d="M337.5 593.5q2.5 13.7 7 26 8.4.2 16-2h12v1l-31 3q-2-13-5-26-.2-1.5 1-2"
    style="opacity: 1"
  />
  <path
    fill="#ae7527"
    d="M1037.5 644.5q-3.6-.3-7-1-.3-20.4-21-18v-24q25.4 3 19.5-22-6-12.3-19.5-10v-27h11q1.8 0 2.5 2 .4-1.7 1.5-3 5.6 8.3 3-1.5 2-3 5-4.5l-2-3a10 10 0 0 0 0-8.5q.5-5.2 5-7.5 2.7 64 2 128"
    style="opacity: 1"
  />
  <path
    fill="#1f3238"
    d="M407.5 589.5q-.6 4.4 1.5 8 11 0 22.5-1 14 1.2 28 2 .2 1-.5 2a23 23 0 0 0-11.5-.5l8 1-1 1q1.2.4 2 1.5a11 11 0 0 1-10.5-1q-4.5 2.3-7-2l-1 2h-13q-.7 1-.5 2-5.6-.5-11 1l-15 46-2 3q-2.4 1.5-1.5 6 4.8 3.3 9.5 4a40 40 0 0 0-5 5.5q3.9 2.1 0 3.5-8.2-1-13.5-7-3.2 1.2-6.5 1a17 17 0 0 1 5-3.5 19 19 0 0 0-5-3q2.7-.5 1-2a31 31 0 0 0-12.5-3.5 7 7 0 0 1-7.5 1.5q12-1.2 0-1.5 13.2-1.3 26.5-4l11.5-34q1.5-1.5 1-4a346 346 0 0 0 6-20q.8-2.2 2-4"
    style="opacity: 1"
  />
  <path
    fill="#67c841"
    d="m401.5 578.5 4 15a346 346 0 0 1-6 20q-3.6.3-7-1-4-20-7-40-.3-3 .5-6a12 12 0 0 0 3 7l1-1a16 16 0 0 0 4.5 7q1.5-.7 2.5-2 2.1 2 3-1 .5 1.5 1.5 2"
    style="opacity: 1"
  />
  <path
    fill="#e22e56"
    d="M368.5 576.5q4.5 19.5 7 40-2-.3-3 1h-12q-3.7-19.5-7-39 7.2-1.5 15-2"
    style="opacity: 1"
  />
  <path
    fill="#f0f1f0"
    d="M484.5 585.5q-3 7.4-7 14.5-9 .4-18-1.5-14-.8-28-2h-14q.4-11 7-19.5 29 1.2 58 3a8 8 0 0 1 2 5.5"
    style="opacity: 1"
  />
  <path
    fill="#66c95a"
    d="M430.5 588.5q17.2 3.5 35 2 .5 4.9-4.5 4-15.7-1.5-31.5-2-.5-2.5 1-4"
    style="opacity: 1"
  />
  <path
    fill="#3ea236"
    d="M432.5 583.5q6 2.5 13 2.5 11 .8 22 .5a7 7 0 0 1-2 4q-17.8 1.5-35-2a6 6 0 0 1 2-5"
    style="opacity: 1"
  />
  <path fill="#336439" d="M432.5 583.5q17.9.3 35 3-11 .3-22-.5-7 0-13-2.5" style="opacity: 1" />
  <path
    fill="#5c6267"
    d="M337.5 593.5q-1.2.5-1 2a280 280 0 0 1-6.5-34q5 15.7 7.5 32"
    style="opacity: 1"
  />
  <path
    fill="#f8b725"
    d="m383.5 567.5 2 5q3 20 7 40-7.9 3-17 4a353 353 0 0 0-7-40q-1.5-3.8 0-7.5 7.5-1 15-1.5"
    style="opacity: 1"
  />
  <path
    fill="#32c052"
    d="M624.5 565.5a112 112 0 0 1 9 11 98 98 0 0 1 3 30q1 9.6-2 18-18.4-8.8-31 7-17.8-11-33.5 3-16.3-14-32.5 0-5.4 6-6 14a31 31 0 0 1-13-.5 12 12 0 0 1-1-11.5l-2-6.5a56 56 0 0 1 4-12.5q-3.3-1.2-.5-3 3 5.6 8.5 3 0-2.7 1.5-5 1.5 10.5 4 1 3.2.3 6.5 0 4.4 4.1 8-.5a13 13 0 0 0-6-2q4-.5 8-2 11.5-.3 23 0 3.3-1.5 6.5-3.5l7.5-13q8.8 0 13-7.5l-1-1q5-.4 4-5.5h3q-.2-2 1-3.5 7.3-3.8 15.5-4.5l1 3q.2-3.3 2.5-5.5-3.2-.2-5-2.5z"
    style="opacity: 1"
  />
  <path
    fill="#107cc0"
    d="M353.5 578.5q3.3 19.5 7 39a54 54 0 0 1-16 2q-4.7-31.7-11-63l15-1q1.5 12 5 23"
    style="opacity: 1"
  />
  <path
    fill="#f6f6f6"
    d="M1125.5 554.5q13-.3 26 .5 1.7 5.6.5 11.5-12.7 1.7-25.5.5-3.4-6-1-12.5"
    style="opacity: 1"
  />
  <path
    fill="#37c056"
    d="M624.5 565.5h-4a6 6 0 0 0 5 2.5 8 8 0 0 0-2.5 5.5l-1-3q-8.2.7-15.5 4.5-1.2 1.5-1 3.5h-3q1 5-4 5.5l1 1q-4.2 7.6-13 7.5l-7.5 13q-3.1 2-6.5 3.5-11.5-.3-23 0-4 1.5-8 2 3.3.3 6 2-3.6 4.5-8 .5-3.3.3-6.5 0-2.5 9.5-4-1a9 9 0 0 0-1.5 5q-5.6 2.6-8.5-3-2.9 1.8.5 3a56 56 0 0 0-4 12.5l2 6.5q-2.5 6.2 1 11.5a31 31 0 0 0 13 .5v11a59 59 0 0 1-20-7.5q-3.3-4.5-5.5-9.5-1.2-29.6.5-59 1-.5 1.5-2 .7.7 1.5 1a62 62 0 0 1 51-42.5q30-4 54 14 6 5.1 10 11.5"
    style="opacity: 1"
  />
  <path
    fill="#5bcc65"
    d="M633.5 576.5a112 112 0 0 0-9-11q-4-6.3-10-11.5a71 71 0 0 0-54-14 62 62 0 0 0-51 42.5q-.8-.3-1.5-1-.5 1.5-1.5 2 5-34.4 37-48.5 47.4-15.3 80.5 21.5 6 9.5 9.5 20"
    style="opacity: 1"
  />
  <path
    fill="#f6b84e"
    d="M1013.5 423.5q26.1-1 51 2h-17v219c-3 1-6 1-9 0q.3-109-.5-218-12.7-.5-24.5-3"
    style="opacity: 1"
  />
  <path
    fill="#e6ecef"
    d="M991.5 521.5q12-.3 24 .5a5 5 0 0 1 2 4.5q-13 .5-26-1z"
    style="opacity: 1"
  />
  <path
    fill="#f8c727"
    d="m974.5 510.5 5 4a39 39 0 0 1 1 21q-2.4-.2-3.5 2-.4-1.2-1.5-2a39 39 0 0 1-18 1.5 26 26 0 0 1-7.5-4.5q-1.2 6-1.5 0 .2-8-1-16 12 6 24-.5a6 6 0 0 0 3-5.5"
    style="opacity: 1"
  />
  <path
    fill="#f3f4f4"
    d="M1092.5 512.5q3.3-.2 6 1.5l25.5 21.5q2 6-3.5 9.5-13.5 9.3-28 16.5-7-1-4.5-8 11.2-8 22.5-15.5-8.8-8.3-18.5-15.5-3.2-5.3.5-10"
    style="opacity: 1"
  />
  <path fill="#b17b2c" d="M735.5 427.5v223q-7.5-1.2-15-3l-6-2v-218z" style="opacity: 1" />
  <path
    fill="#f7e99a"
    d="M974.5 510.5q.2 3.6-3 5.5-12 6.5-24 .5-1.8-2.3 0-5 6.4-5.5 15-5 7.2-1 12 4"
    style="opacity: 1"
  />
  <path
    fill="#f3f4f4"
    d="M1210.5 515.5a120 120 0 0 0-12-14q-57-3.2-114-5v-11q60 1.5 120 4.5 4.2 2.3 6.5 6.5 0 9.5-.5 19"
    style="opacity: 1"
  />
  <path fill="#745c2a" d="M1010.5 483.5h9q-3.7 1.5-8 1 .5 7.3-1 14z" style="opacity: 1" />
  <path
    fill="#f4f4f5"
    d="M995.5 483.5q1.5 13.8 1 28a25 25 0 0 1-7-.5q-4-6-10-10a34 34 0 0 0-36 1.5q-3.3 0-3-3.5a64 64 0 0 1 5-15q25-.8 50-.5"
    style="opacity: 1"
  />
  <path
    fill="#b57d2b"
    d="M1013.5 423.5q11.8 2.5 24.5 3 .8 109 .5 218h-1q.7-64-2-128-4.5 2.3-5 7.5a10 10 0 0 1 0 8.5l2 3q-3 1.5-5 4.5 2.6 9.8-3 1.5-1 1.3-1.5 3-.6-2-2.5-2l2-2q4.5-2.9 6.5-8 3.2-21.6-18.5-21v-13q1.5-6.7 1-14 4.3.5 8-1 7.2-1 9.5-8 4.5-21-16.5-21-.5-15.7 1-31"
    style="opacity: 1"
  />
  <path fill="#516c7b" d="M916.5 468.5h1v4h32q-3.6 1.5-8 1h-25z" style="opacity: 1" />
  <path
    fill="#99b5c7"
    d="M1017.5 466.5q1.8 2.3 0 5-34 1.5-68 1h-32v-4q50.5 1 100-2"
    style="opacity: 1"
  />
  <path
    fill="#eef1f2"
    d="M916.5 464.5q50-.3 100 .5.9.6 1 1.5-49.5 3-100 2h-1z"
    style="opacity: 1"
  />
  <path fill="#1d4738" d="M913.5 453.5q10.9 1.5 22 1-5.3 1-11 1-6 0-11-2" style="opacity: 1" />
  <path
    fill="#1d2c37"
    d="M906.5 445.5q0 1.5 1 3l-2 1q2 3.5-1 6 1 1.9 1 4-1.5-2.7-4-5a18 18 0 0 0-8-5.5q-12.8-3-22.5 5.5-1.2 2.4.5 4v21q-1.2-7.8-1.5-16-1 9 0 18a7 7 0 0 0 2.5 3.5q-3.5 3.8-8 2.5-6 4.5-13 2.5l4-2-1.5-.5a24 24 0 0 1-16 1l-1.5 1a9 9 0 0 0 6 3.5l-6 1q1.5 1.7-1 3-6.9 4.5-15 3.5.2 1.5-.5 3-3.8 3-7.5 6.5 3.5 1.2 5-2.5 4.5 3.2-1 3.5-2 3.6 1 6.5v6a9 9 0 0 0-1.5 4q-.5-6.6-2-13-.5 4-3.5 2-2.3 2.5-5 4l-20 2h-1q7.4-2.7 16-2.5-2-1 0-2-3-.5-1-2.5-4-1.2-8-1.5 9.6.2 18-2.5 3-4.9 7-9.5-2.6-6-9-4.5-6 .3-12-.5a4 4 0 0 1 3-1.5q10 2.3 19-2.5l-3-8.5q1.6-2.9 4-5a8 8 0 0 0-.5 4l3-5q2 2 4 0 2.1 3.9 3.5 0a15 15 0 0 0 12 9.5q22 2.2 23-20-.6-4.3-1.5-8.5-1-3.1-3.5-5a19 19 0 0 0-17-6 4 4 0 0 1 3-2.5q4-.5 8-2-1.8-2.4-6-3 3-.8 6-.5 7.2 1.1 13.5 5a42 42 0 0 1 12.5-5.5q15.4-3 28 5.5"
    style="opacity: 1"
  />
  <path fill="#494732" d="M760.5 427.5h-46v218q-1.5-109.2-1-219 23.7-.5 47 1" style="opacity: 1" />
  <path
    fill="#1f3137"
    d="M809.5 439.5q7.2 2 14 5 14-7.3 29-4-3-.3-6 .5 4.2.6 6 3-4 1.5-8 2a4 4 0 0 0-3 2.5q-8.1 1-13.5 7-1.2 3.3.5 6v17q-1.5 3.9-3.5 0-2 2-4 0l-3 5q-.3-2 .5-4 .7-3.4 1-7 1.9-10.9-5-19-8.7-6.5-20-5-1 .2-2-.5a18 18 0 0 0 3-7q7.3-.3 14-1.5"
    style="opacity: 1"
  />
  <path
    fill="#1b2c34"
    d="M789.5 450.5a26 26 0 0 0-6 6 47 47 0 0 0 0 19q5.3 16 22 12.5 5-1 9-3.5l3 8.5q-9 4.8-19 2.5a4 4 0 0 0-3 1.5q6 .8 12 .5a32 32 0 0 1-24-3.5q-1.8-1.5-3-3.5-1-1.3-3-1-.5 11.3 1 22a122 122 0 0 0 31 0 55 55 0 0 1-18 2.5q4 .3 8 1.5-2 2 1 2.5-2 1 0 2-8.6-.2-16 2.5h-5v10h28v-10h-22l20-2q2.7-1.5 5-4 3 2 3.5-2 1.5 6.4 2 13 .3-2.4 1.5-4a35 35 0 0 0 2 14q10.8 15.9 28 6.5 4.7-3.7 6-9.5 2.3-10-1.5-20-1.5-1.8-3.5-3a21 21 0 0 0-19-4.5 17 17 0 0 0-11 9.5q0 1-1 1-3-2.9-1-6.5 5.5-.3 1-3.5-1.5 3.6-5 2.5 3.7-3.5 7.5-6.5.7-1.5.5-3 8.1 1 15-3.5 2.5-1.3 1-3l6-1a9 9 0 0 1-6-3.5l1.5-1a24 24 0 0 0 16-1l1.5.5-4 2q7 1.9 13-2.5 4.5 1.3 8-2.5a7 7 0 0 1-2.5-3.5q-1-9 0-18 .3 8.2 1.5 16 8.1 11.3 22 7.5 9-1.6 11.5-10.5 2.6-8.4.5-17 0-2.1-1-4 3-2.5 1-6l2-1q-1-1.5-1-3 4 3 7 7-5.5-1.5-1 3 9.6 1 19 2.5-6.6 1.2-12.5 4.5l-7-3-2 2q-.7-3.6-2.5-.5 1 2.6 1.5 5.5 1-2 2 0 1.5-4.5 5.5-2v9h25q-.5 1-2 1.5 6 .7 11 4 12 1 24 0 2.1-1.5 4.5-2.5 6.2 3.5 13.5 3.5l-6 1a9 9 0 0 0 8 .5q1.2.7 1 2-25-.3-50 .5a64 64 0 0 0-5 15q-.3 3.4 3 3.5-.5 1-2 1.5 1.8.5 3 2a21 21 0 0 0-2.5 8.5q1.5-2.4 3.5-4l2 1q-1.8 2.7 0 5 1.2 8 1 16-2.2 10.5 9 13.5 9.6 2 18-3 3.5-3.2 5-7.5a39 39 0 0 0-1-21q2-.8 4-.5 1.5 3.8 3.5 7.5 1-2.6 3.5-1.5-1.5 1.5-.5 3.5.4-1.5 1.5-2v10q12.5.3 25-.5.9-.6 1-1.5 2-7.8 3.5 1l1-2q3.3 4-1 7-3-1-3-3l-2 3-9-3-1.5 1q2.2 2 4 4.5 4.5.3 8.5 1.5 3.9-4.2 4.5 1l-2 2h-11v27q13.6-2.3 19.5 10 5.9 25-19.5 22v24q20.7-2.4 21 18 3.4.7 7 1h1c3 1 6 1 9 0a94 94 0 0 1 17-2q-.9 4.6-3 1a19 19 0 0 1-10 6q1.4 1.5 3.5 2a76 76 0 0 0 14.5-3l2 1q1.6 1.5 4 1-15.4 2.7-31.5 5-8.5-.8-17-2a63 63 0 0 1-17.5 2h-16q.7 9 1 18-1.2-2.7-1.5-6-.5 3.2-2 6a21 21 0 0 0-3.5-8.5q.7-.7 1-1.5-3.9-5.2 0-10.5l-8 2.5-2-4q2.1-12.3-6-21-16-10.9-30.5 2a91 91 0 0 0 .5 23q3 9.3 13 10.5 3.4.8 7 .5a29 29 0 0 0 13 .5l-2 2q1.8-.1 3 .5-9.5 2.3-1 7.5-1.7.3-3 1.5a649 649 0 0 1-59 1q1.3-3.3 0-6.5a7 7 0 0 1 4-3q-7.5-1.3 1-2-1-.7-2-.5 5.6-1.3 11-4.5 4.8-4.2 5-10.5 2.7-9.8-2.5-19a7 7 0 0 0-2.5-2 17 17 0 0 0-11-5 125 125 0 0 0-11-2q-3.7.2-7.5 1-6.7-11.5-15-1a26 26 0 0 1 1.5 6q3.8 2.1 7.5 3 1 3.2-1 6a4 4 0 0 0-3.5-2 17 17 0 0 0-5-6q-12.9-9-27-1.5-3 2.2-4 5.5a46 46 0 0 0 0 19 18 18 0 0 0 10 12q.3 4.8-4 1.5a27 27 0 0 0-5.5-6.5q-5.5.3-10-4a5 5 0 0 1 1.5-6 6 6 0 0 0 5 2q.3-5-.5-10l-1 1q-3-2.4-6.5-4-31.2-.5-62 1-1.2 4.7-1.5 10l-1-10q-1.2 6 .5 11.5-1 .7-2 .5t-2 .5q3.2 3.5 8 4-4.3.3-8 1.5-15.2.8-30.5 2a84 84 0 0 1-30.5-6q1-2.1 3.5-2 5.7 1.5 11.5.5a52 52 0 0 0-11-5.5q2.6-.1 5-1 7.5 1.8 15 3 12.2 1.5 25 1v-6q1.2-38.3 1.5-77l1.5-4.5a10 10 0 0 1-2-5 25 25 0 0 1 2-11q-1.5-3.7-2-7.5 2-7.3 2-15h4q.5-3.6-1-7l-2 3a60 60 0 0 1-1-34q.3-3.8-2-6.5l2-1q-3.6-.7-.5-2.5l.5-9-1.5-4q-1-15 0-30l3-2q2.2 3.9 2.5-1 8.4 0 17 3l2 10.5-2 1q3.8 1 5 4.5"
    style="opacity: 1"
  />
  <path
    fill="#97cff3"
    d="M972.5 630.5a7 7 0 0 1-3 4.5q-13.5 6.2-28 1.5-.3-2 .5-4 14.5-12.9 30.5-2"
    style="opacity: 1"
  />
  <path
    fill="#99d1f6"
    d="M916.5 626.5q6.5.5 11 5-3.9 6-11 7.5a35 35 0 0 1-20-2.5q0-5.3 5-7.5 7-3.3 15-2.5"
    style="opacity: 1"
  />
  <path
    fill="#9bd1f6"
    d="M882.5 631.5a13 13 0 0 1-8 7.5q-9 1-18 0-3.5-.3-5-3.5 1-3.3 4-5.5 14.1-7.5 27 1.5"
    style="opacity: 1"
  />
  <path
    fill="#b67c25"
    d="M958.5 602.5h36v21q-7 .3-14-.5a65 65 0 0 0-14-6 267 267 0 0 1-23-1.5 29 29 0 0 0 15-13"
    style="opacity: 1"
  />
  <path fill="#265642" d="M820.5 582.5q1.7 6.7.5 14-.6.9-1.5 1 1.3-7.5 1-15" style="opacity: 1" />
  <path fill="#a7c0d0" d="M1017.5 582.5a9 9 0 0 1 0 8q-28.5 1.5-57 1v-6h57z" style="opacity: 1" />
  <path
    fill="#f0f3f5"
    d="M999.5 580.5q8.5-.3 17 .5.9.6 1 1.5v3h-57v-2a379 379 0 0 1 39-3"
    style="opacity: 1"
  />
  <path fill="#889299" d="M999.5 580.5a379 379 0 0 0-39 3q-1.3-1-1-3z" style="opacity: 1" />
  <path
    fill="#41c35b"
    d="M814.5 573.5q4.8 3.2 6 9 .3 7.5-1 15-7 14.5-23 11.5-10.5-3.6-12.5-14.5-1-7.5 0-15 .3-1.8 1.5-3 0 3.8 4 4.5a25 25 0 0 0 22-2.5q2.3-2.1 3-5"
    style="opacity: 1"
  />
  <path
    fill="#41c45b"
    d="M945.5 573.5q3.3 2.1 4.5 6 5 29.5-24.5 27.5a26 26 0 0 1-8.5-6.5q-2.2-11.4-1.5-23a27 27 0 0 0 30-4"
    style="opacity: 1"
  />
  <path
    fill="#43c55c"
    d="M901.5 573.5q4.5 2.6 5.5 8 3.7 30.8-26.5 25.5a26 26 0 0 1-6.5-5.5 99 99 0 0 1-1.5-23 33 33 0 0 0 26-1.5q1.8-1.5 3-3.5"
    style="opacity: 1"
  />
  <path
    fill="#41c35a"
    d="M857.5 572.5a20 20 0 0 1 6.5 21q-1.2 12.6-13.5 14.5-11.6 3-19.5-5.5-2-12-2.5-24a31 31 0 0 0 25 .5 8 8 0 0 0 4-6.5"
    style="opacity: 1"
  />
  <path
    fill="#bfed85"
    d="M857.5 572.5q-.4 4.2-4 6.5a31 31 0 0 1-25-.5q-.3-2 .5-4 13.5-10.8 28.5-2"
    style="opacity: 1"
  />
  <path
    fill="#bdef85"
    d="M945.5 573.5a27 27 0 0 1-30 4q-1.7-1.6-.5-4 4-4.1 9.5-5.5a39 39 0 0 1 16 1 11 11 0 0 1 5 4.5"
    style="opacity: 1"
  />
  <path
    fill="#bded86"
    d="M901.5 573.5q-1.2 2-3 3.5a33 33 0 0 1-26 1.5q-2-4.8 3-7.5 14-8 26 2.5"
    style="opacity: 1"
  />
  <path
    fill="#c2ef81"
    d="M814.5 573.5q-.7 2.9-3 5a25 25 0 0 1-22 2.5q-4-.7-4-4.5 9.6-11.6 24-6.5 3.1 1 5 3.5"
    style="opacity: 1"
  />
  <path fill="#048e43" d="M911.5 555.5q2.2-.5 4 1-2.2 6.3-8 6z" style="opacity: 1" />
  <path
    fill="#047746"
    d="M881.5 558.5a13 13 0 0 1 5-1.5 5 5 0 0 0-3-.5q6-2.6 12.5-5l1.5 1q-5.8 8-16 6"
    style="opacity: 1"
  />
  <path
    fill="#05a04a"
    d="M883.5 556.5q1.5-.2 3 .5a13 13 0 0 0-5 1.5 51 51 0 0 0-15 7 40 40 0 0 0-32-6q-1 .2-2-.5l9-2.5q8.5-2.7 16-7a39 39 0 0 0 26 7"
    style="opacity: 1"
  />
  <path
    fill="#01954d"
    d="m841.5 556.5-9 2.5q1 .7 2 .5a55 55 0 0 0-10.5 6q-7.2-3.5-14.5-6.5-7.5-1-15 0a20 20 0 0 1-10 2q-2.8-3.3-6.5-5.5-.8-6-.5-12 17-.5 34 1a29 29 0 0 0 30 12"
    style="opacity: 1"
  />
  <path
    fill="#f5f5f6"
    d="M989.5 542.5h6v28q-19.5.5-39-1-5.5-5.2-11.5-10-1.2-4 .5-8 19.5 12.2 38-1.5 3.9-3 6-7.5"
    style="opacity: 1"
  />
  <path
    fill="#e4b723"
    d="M905.5 521.5q1.2 5.7 1.5 12l1-1q10.8 7.2 23.5 4.5l-2 2q3.3-.4 6 .5a6 6 0 0 1-4 4.5q-15 7-25.5-5.5a145 145 0 0 1-.5-17"
    style="opacity: 1"
  />
  <path
    fill="#e3b723"
    d="M948.5 532.5q.3 6 1.5 0a26 26 0 0 0 7.5 4.5q9.2 1.3 18-1.5 1 .8 1.5 2a3 3 0 0 1 3.5-2q-1.5 4.3-5 7.5a25 25 0 0 1-18 3q-11.2-3-9-13.5"
    style="opacity: 1"
  />
  <path
    fill="#e3b824"
    d="M853.5 534.5q-1.3 5.8-6 9.5-17.2 9.3-28-6.5.9-.1 1.5-1l3 4q1.4-2.7 4.5-3 12.3 3.3 22.5-4 1.3.4 2.5 1"
    style="opacity: 1"
  />
  <path
    fill="#e2b626"
    d="M896.5 532.5q-.3 6.3-5 10.5-16.4 10.5-28.5-4.5-1.2-2.9.5-5-.2 1.5.5 3a4 4 0 0 1 2.5-3q8.1 5.7 18 3.5 6-2.7 12-4.5"
    style="opacity: 1"
  />
  <path fill="#bccad6" d="M784.5 522.5h23v10h-28v-10z" style="opacity: 1" />
  <path
    fill="#96b3c7"
    d="M991.5 525.5q13 1.5 26 1v3q-.1.9-1 1.5-12.5.8-25 .5z"
    style="opacity: 1"
  />
  <path fill="#f6f8f8" d="M780.5 523.5h26v4h-26z" style="opacity: 1" />
  <path
    fill="#f9c82b"
    d="M891.5 511.5q4.3 3.4 5.5 9 1.2 6.3-.5 12-6 1.8-12 4.5-9.9 2.2-18-3.5a4 4 0 0 0-2.5 3 5 5 0 0 1-.5-3q.2-8.6-1-17 13 6 26-.5 2-2.2 3-4.5"
    style="opacity: 1"
  />
  <path
    fill="#f6c626"
    d="M848.5 511.5q2 1.2 3.5 3 3.8 10 1.5 20-1.2-.6-2.5-1a26 26 0 0 1-22.5 4q-3 .3-4.5 3l-3-4q-.6.9-1.5 1a35 35 0 0 1-2-14v-6q1 0 1-1l5 2.5q8.5 1 17 0 5.8-2.1 8-7.5"
    style="opacity: 1"
  />
  <path
    fill="#f7c72a"
    d="M932.5 510.5a17 17 0 0 1 6.5 9q1 6.5 0 13-1 4-3.5 7-2.7-1-6-.5l2-2q-12.7 2.7-23.5-4.5l-1 1q-.3-6.3-1.5-12a12 12 0 0 1-1-6q0-.6.5-1 7.5 7 17.5 4.5 4-1.2 8-3a6 6 0 0 0 2-5.5"
    style="opacity: 1"
  />
  <path
    fill="#f7ea9e"
    d="M848.5 511.5a13 13 0 0 1-8 7.5q-8.5 1-17 0l-5-2.5q3.3-7 11-9.5 10.9-2.4 19 4.5"
    style="opacity: 1"
  />
  <path
    fill="#f7e89c"
    d="M932.5 510.5q.5 3.3-2 5.5a58 58 0 0 1-8 3q-10.1 2.6-17.5-4.5-.6.4-.5 1-1.5-.5-.5-2a21 21 0 0 1 22.5-6.5q3.8.6 6 3.5"
    style="opacity: 1"
  />
  <path
    fill="#f7e99d"
    d="M891.5 511.5q-1 2.3-3 4.5a28 28 0 0 1-26 .5q-1.7-1.6-.5-4 9.7-8.5 22.5-5.5 4 1.5 7 4.5"
    style="opacity: 1"
  />
  <path fill="#015634" d="M852.5 498.5q3.2-.5 6 1-1.8 2.8-5 1.5-1.1-1-1-2.5" style="opacity: 1" />
  <path fill="#085f3d" d="M780.5 490.5q-3 9.9-2 21-1.5-10.7-1-22 2-.3 3 1" style="opacity: 1" />
  <path
    fill="#01984a"
    d="M780.5 490.5q1.2 2 3 3.5a32 32 0 0 0 24 3.5q6.4-1.5 9 4.5-4 4.5-7 9.5a122 122 0 0 1-31 0q-1-11.1 2-21"
    style="opacity: 1"
  />
  <path
    fill="#018445"
    d="M914.5 484.5q6.8-1 12 2a37 37 0 0 0-3 9q-13 0-23.5 7a66 66 0 0 1-6.5-4q6-3 12-5.5 4.3-4.5 9-8.5"
    style="opacity: 1"
  />
  <path
    fill="#d4282c"
    d="M819.5 472.5q-.3 3.6-1 7a22 22 0 0 0-4 5 27 27 0 0 1-9 3.5q-16.7 3.4-22-12.5a9 9 0 0 0 1.5-4q12.8 13.5 29.5 4.5 1.3-1.5 1-3.5z"
    style="opacity: 1"
  />
  <path fill="#07593c" d="M914.5 484.5q6.2-1.5 13-1 .3 2-1 3-5.2-3-12-2" style="opacity: 1" />
  <path
    fill="#de2c31"
    d="M858.5 454.5q2.4 1.9 3.5 5 .9 4.2 1.5 8.5-1 22.2-23 20a15 15 0 0 1-12-9.5v-17q-.2-4.8 4-1.5 11.3 1.5 22-2 1.5-2.4 4-3.5"
    style="opacity: 1"
  />
  <path
    fill="#de2930"
    d="M901.5 454.5q2.5 2.3 4 5a32 32 0 0 1-.5 17q-2.4 9-11.5 10.5-13.9 3.8-22-7.5v-21a54 54 0 0 0 22 1.5q4.8-2 8-5.5"
    style="opacity: 1"
  />
  <path
    fill="#e52b32"
    d="M814.5 453.5a22 22 0 0 1 5 19h-4q.3 2-1 3.5-16.7 9-29.5-4.5a9 9 0 0 1-1.5 4 47 47 0 0 1 0-19q2.5 3.8 7 4.5a34 34 0 0 0 21-3q2-2.2 3-4.5"
    style="opacity: 1"
  />
  <path
    fill="#f67d7c"
    d="M794.5 448.5q11.3-1.5 20 5-1 2.3-3 4.5a34 34 0 0 1-21 3q-4.5-.7-7-4.5 2.6-3.6 6-6 2.9-.5 5-2"
    style="opacity: 1"
  />
  <path
    fill="#f77c7c"
    d="M901.5 454.5a24 24 0 0 1-8 5.5 54 54 0 0 1-22-1.5q-1.7-1.6-.5-4 9.7-8.5 22.5-5.5 4.8 1.7 8 5.5"
    style="opacity: 1"
  />
  <path
    fill="#f67a7b"
    d="M841.5 448.5q10.1-1 17 6-2.5 1-4 3.5-10.7 3.5-22 2-4.2-3.3-4 1.5a7 7 0 0 1-.5-6q5.4-6 13.5-7"
    style="opacity: 1"
  />
  <path
    fill="#f2ae40"
    d="M747.5 427.5h12v223h-10q4.2-1.5 9-1 .3-41.5-.5-83a9 9 0 0 1-4.5 5.5l1 1a13 13 0 0 0-3 5l-1 .5q-1.2-1.9-1.5-4-.8 38-.5 76h-1z"
    style="opacity: 1"
  />
  <path
    fill="#eca83d"
    d="M749.5 650.5h-1q-.3-38 .5-76 .3 2.1 1.5 4l1-.5q.9-2.9 3-5l-1-1q3.3-1.8 4.5-5.5.8 41.5.5 83-4.8-.5-9 1"
    style="opacity: 1"
  />
  <path fill="#f8bf55" d="M735.5 427.5h12v223h-12z" style="opacity: 1" />
  <path fill="#b57c2b" d="M1064.5 425.5v217q-8.6.2-17 2v-219z" style="opacity: 1" />
  <path
    fill="#172937"
    d="m1071.5 649.5-2-1a76 76 0 0 1-14.5 3q-2.1-.5-3.5-2 6.7-2 10-6 2.1 3.6 3-1 1.2-107.7 1.5-216l1 215 2.5-2.5q4.5-.3 9-1.5a41 41 0 0 1 5-7q7.5 1.8 15 2.5-4 .5-8 2 1.8 1.7 0 3.5 1.4 1.2 3 1.5-4.7 1.2-8 5l2 1a12 12 0 0 1-10.5.5q-3.8 0-5.5 3"
    style="opacity: 1"
  />
  <path
    fill="#b8e5f2"
    d="M465.5 631.5a19 19 0 0 1-2 8q-.1.9-1 1.5-7 .8-14 .5 0-6.1 3-11.5a54 54 0 0 1 14 1.5"
    style="opacity: 1"
  />
  <path
    fill="#8f5d19"
    d="M678.5 634.5q8.2 1.5 17 1v7q-2.5-.5-4 1-16-.5-22 14-7.8-3-17-2 2.1-12 3-24 11.3 3 23 3"
    style="opacity: 1"
  />
  <path fill="#644922" d="M678.5 634.5h18v9h-5q1.5-1.5 4-1v-7q-8.8.5-17-1" style="opacity: 1" />
  <path
    fill="#f1f2f2"
    d="M583.5 634.5q13-2 17.5 10 .8 11 .5 22-13.3 1.5-26.5 0-1-11.5 0-23 2.5-6.3 8.5-9"
    style="opacity: 1"
  />
  <path
    fill="#3395df"
    d="M882.5 631.5q3.2 2.4 5 6 1.3 7.5 1 15a19 19 0 0 1-7.5 3q-8.3-2.2-16.5.5 3.9 1.2 0 1.5-3-.5-5.5-2-1.5 1.7-2-1l-1 1a15 15 0 0 0-3.5-3q-1.2.7-1 2a46 46 0 0 1 0-19q1.5 3.2 5 3.5 9 1 18 0 5.7-2 8-7.5"
    style="opacity: 1"
  />
  <path
    fill="#6cc8f6"
    d="M376.5 634.5q4-.3 8 .5 1.3 1.5 1 3.5l-41 4q-.2-2.4 2-3.5 15.3-2 30-4.5"
    style="opacity: 1"
  />
  <path
    fill="#f1f2f2"
    d="M548.5 635.5q11.4-2.1 16.5 8 1 11.6-.5 23-11.4-1-22.5-4a26 26 0 0 1 0-22q3-3 6.5-5"
    style="opacity: 1"
  />
  <path
    fill="#eceff2"
    d="M1019.5 640.5h-31q-.8-2.4-1-5 15-.3 30 .5a5 5 0 0 1 2 4.5"
    style="opacity: 1"
  />
  <path
    fill="#1b2e2d"
    d="M423.5 628.5q1.5 1.5 1 4-1.1 3.3-2 7-6.3.3-12.5-1-2-.3-2.5-2 7 0 14 1z"
    style="opacity: 1"
  />
  <path
    fill="#328fdf"
    d="M927.5 631.5a7 7 0 0 1 2.5 2 25 25 0 0 1 2.5 19 37 37 0 0 1-32 2.5q-.8-1.5-2-2.5l-2-10v-6a35 35 0 0 0 20 2.5q7.1-1.5 11-7.5"
    style="opacity: 1"
  />
  <path
    fill="#3191df"
    d="M972.5 630.5a23 23 0 0 1 6 21 20 20 0 0 1-5 9q-3-2.7-7.5-4-8.9 1.3-17.5 1-1.5-.7-2.5-2-1.5 1.7-2-1-.6.9-1.5 1-1.5-9.2-1-19 14.5 4.7 28-1.5a7 7 0 0 0 3-4.5"
    style="opacity: 1"
  />
  <path fill="#e9edef" d="M840.5 640.5v5q-31 1.5-62 1v-5q30.8-1.5 62-1" style="opacity: 1" />
  <path fill="#a4bacc" d="M988.5 640.5h31q.3 2.8-2 4.5-14.5.8-29 .5z" style="opacity: 1" />
  <path
    fill="#1e3638"
    d="M463.5 639.5q2 2.1 0 4.5-7 .3-14-.5-1.2-.5-1-2 7 .3 14-.5.9-.6 1-1.5"
    style="opacity: 1"
  />
  <path
    fill="#afdced"
    d="m408.5 641.5 11 2-1 2a18 18 0 0 0-2 9 199 199 0 0 0-14-1q.3-5.7 2.5-11 1.5-1.2 3.5-1"
    style="opacity: 1"
  />
  <path fill="#acc8d8" d="M840.5 645.5v6h-62v-5q31 .5 62-1" style="opacity: 1" />
  <path
    fill="#1788c5"
    d="M466.5 613.5h-11l-2 10v3q7.5 1.1 15 1 3.8 2.3 0 5 .2 1-.5 2-.3-2.4-2.5-3a54 54 0 0 0-14-1.5q-3 5.4-3 11.5-.2 1.5 1 2 6.2 1.8 13 2.5l2 1a4 4 0 0 1-4 1.5q-7.3-2-15-2-1 5.4-1 11h-1l-4-1a11 11 0 0 0 0-9q-.2-1.6-2-2-15.7-7.3-14 10a7 7 0 0 1-2.5-2q-.3-5.3-1.5-10l-11-2q7.5.2 14-2 .9-3.7 2-7 1.2-2.6 3-5 1.5-2 3 0-2 5.3-2 11-2 1 0 2.5 7.5 1.8 15 1.5.5-5.6 2-11 0-1.5-1-2a28 28 0 0 0-13-2q1.2-1.2 3-1.5-1.5-.4-2-1.5 7.5 1.5 15 0l3-9.5q0-1.5-1-2.5l-9-2q5.1.6 9.5-2 7.2 1.7 14.5 2.5l-6 1q4.3.3 8 1.5"
    style="opacity: 1"
  />
  <path
    fill="#233e4a"
    d="M444.5 629.5q1 .5 1 2-1.5 5.4-2 11-7.5.3-15-1.5-2-1.5 0-2.5 7 1 14 1 0-5.2 2-10"
    style="opacity: 1"
  />
  <path
    fill="#b3e2f5"
    d="M430.5 627.5h1q7-.5 13 2-2 4.8-2 10-7 0-14-1 0-5.7 2-11"
    style="opacity: 1"
  />
  <path
    fill="#31454e"
    d="M778.5 641.5v10h50q-24.8 1.2-50 1.5l5 1q-5.2 4.5-9-.5 1 .2 2-.5a23 23 0 0 1-.5-11.5l1 10q.3-5.3 1.5-10"
    style="opacity: 1"
  />
  <path
    fill="#23393b"
    d="M418.5 645.5q1 .5 1 2-1.6 4.5-2 9l-15-1v-2q7 .3 14 1-.1-4.8 2-9"
    style="opacity: 1"
  />
  <path
    fill="#257fcd"
    d="m896.5 642.5 2 10q1.2 1.1 2 2.5 16.7 6 32-2.5-.2 6.3-5 10.5a38 38 0 0 1-11 4.5q-24.3-.8-20-25"
    style="opacity: 1"
  />
  <path
    fill="#1b2a37"
    d="M358.5 655.5h2q12 .3 0 1.5a7 7 0 0 0 7.5-1.5 31 31 0 0 1 12.5 3.5q1.7 1.5-1 2a19 19 0 0 1 5 3q-3 1.3-5 3.5h-3q.6-1.8-2-3.5a80 80 0 0 0-27.5.5q-1.5-1.7-2 1-1.6-3.6-1.5 1-2.4.3-4.5-1-2.1 1-4.5 1.5.8 1 2 1.5 1.8-2 2 .5-.2 2.6-1.5.5a12 12 0 0 1-3.5 8.5l2 1q-7.3 2.2-10-5 3.7-4.3 7-9l-1-1q1.7-.3 3-1.5-1.5 0-2-1.5l1.5-4.5a7 7 0 0 0 4.5 5q5-1.2 10-1.5.9-1.1 1.5-2.5a20 20 0 0 0 8.5 1z"
    style="opacity: 1"
  />
  <path
    fill="#f3b549"
    d="M1075.5 650.5q11.7 1.3 23 4-3 2-7 2.5a2002 2002 0 0 1-44 6.5v23h-5q.5-11-1-22l-32-9q9 .3 17.5-2 8.5 1.2 17 2 16-2.3 31.5-5"
    style="opacity: 1"
  />
  <path
    fill="#2887d5"
    d="M888.5 652.5q-.6 4.3-3 8a22 22 0 0 1-24 6 18 18 0 0 1-10-12q-.2-1.3 1-2a15 15 0 0 1 3.5 3l1-1q.5 2.7 2 1 2.5 1.5 5.5 2 3.9-.3 0-1.5 8.2-2.7 16.5-.5 4.2-.7 7.5-3"
    style="opacity: 1"
  />
  <path
    fill="#0a6fa6"
    d="M465.5 631.5q2.1.6 2.5 3 .7-1 .5-2a7 7 0 0 1 3 4 434 434 0 0 1-7.5 28q-1.8 3-5.5 3-29-4-58-6.5-4.7-1.5-4-6.5l2-3q-.5 5.4 4 4l15 1q.4-4.5 2-9 0-1.5-1-2l1-2q1.2 4.7 1.5 10a7 7 0 0 0 2.5 2v3q7 .8 14 .5 2.2-5 2-10.5v-1a11 11 0 0 1 0 9l4 1v3q8 1 16 1a49 49 0 0 1 2-9.5q0-1.5-1-2.5v-1q2.5.3 4-1.5l-2-1q-6.8-.6-13-2.5 7 .8 14 .5 2-2.4 0-4.5a19 19 0 0 0 2-8"
    style="opacity: 1"
  />
  <path
    fill="#20383c"
    d="M439.5 648.5q.2 5.6-2 10.5-7 .3-14-.5v-3q6.4 1.5 13 .5a41 41 0 0 1 3-7.5"
    style="opacity: 1"
  />
  <path
    fill="#bae6f4"
    d="M460.5 648.5v1a37 37 0 0 0-3 8 23 23 0 0 1-13 0q0-5.6 1-11 7.7 0 15 2"
    style="opacity: 1"
  />
  <path
    fill="#b3e0f2"
    d="M439.5 647.5v1a41 41 0 0 0-3 7.5q-6.6 1-13-.5-1.7-17.3 14-10 1.8.4 2 2"
    style="opacity: 1"
  />
  <path
    fill="#f1b145"
    d="M711.5 655.5a84 84 0 0 0 30.5 6q15.3-1.2 30.5-2 3.6 0 7 1 3.2 1.2 7 1.5a1693 1693 0 0 0-53 8l-1.5 1.5q-.8 10-.5 20-2 1.5-5 1v-22q-17-5.1-34-10.5-3.5-.8-5-3.5 8.6-1 17-3z"
    style="opacity: 1"
  />
  <path
    fill="#22404a"
    d="M460.5 649.5q1 .9 1 2.5a49 49 0 0 0-2 9.5q-8 0-16-1v-3h1q6.4 2 13 0 1-4.2 3-8"
    style="opacity: 1"
  />
  <path
    fill="#af7626"
    d="M687.5 656.5q1.5 2.7 5 3.5 17 5.4 34 10.5v22q-21-5.7-42-12v-24z"
    style="opacity: 1"
  />
  <path
    fill="#1e2b34"
    d="M916.5 626.5q-8-.9-15 2.5-5 2.2-5 7.5v6q-4.3 24.2 20 25 1-.2 2 .5-8.5.7-1 2a7 7 0 0 0-4 3q1.3 3.2 0 6.5 29.4.9 59-1 1.3-1.2 3-1.5-8.5-5.2 1-7.5-1.2-.6-3-.5l2-2a29 29 0 0 1-13-.5q6.5-1 11-6a20 20 0 0 0 5-9l2 4 8-2.5q-3.9 5.3 0 10.5-.3.8-1 1.5a21 21 0 0 1 3.5 8.5q1.5-2.8 2-6 .3 3.3 1.5 6-1 2 0 3.5l-1.5 1.5q-2.5-1.2-.5 1.5l-4 3q1.8.5 3 2-.4.6-1 .5-3.4 0-6-2.5-31.5-1.3-63-1.5a135 135 0 0 1-17-2q-2.7-5.4-3 0-14 .3-28-.5 1.2-1.5 3-2-.7-.7-1-1.5 1.8-3.9 3-8 2.4-1.2 5-.5 2-3.4 5-6a5 5 0 0 0-3-.5q2.4-3.7 3-8 .3-7.5-1-15a4 4 0 0 1 3.5 2 7 7 0 0 0 1-6q-3.7-.9-7.5-3a26 26 0 0 0-1.5-6q8.3-10.5 15 1 3.8-.8 7.5-1 5.7.8 11 2"
    style="opacity: 1"
  />
  <path
    fill="#2582d1"
    d="M973.5 660.5q-4.5 5-11 6a25 25 0 0 1-7-.5q-10-1.2-13-10.5.9-.1 1.5-1 .5 2.7 2 1 1 1.3 2.5 2 8.7.3 17.5-1 4.5 1.3 7.5 4"
    style="opacity: 1"
  />
  <path
    fill="#a06922"
    d="m1009.5 655.5 32 9q1.5 11 1 22-24.3-5.5-48-13-.3-9-1-18z"
    style="opacity: 1"
  />
  <path
    fill="#bf822c"
    d="M1119.5 658.5q33 2 66 4.5a68 68 0 0 1 14 2.5q-38.2 16-79.5 22l-3.5-1q1.7-2.8 2.5-6 .8-11 .5-22"
    style="opacity: 1"
  />
  <path
    fill="#bf812b"
    d="M497.5 663.5a105 105 0 0 0 10 6.5q20.3 8.6 42 10.5.1 1.5-1 2.5 4 2 0 4 6 1.5 0 3l3 1q-1 .7-2 .5-14-2-28-4.5-32-5.7-62 7-45-2.5-88-15.5 1.3-1.9 4-2 8-1.2 16-1a30 30 0 0 0 13 6.5q28.5 2.2 57 1 6.2-1.5 12-4l12-12q5.5-3.2 12-3.5"
    style="opacity: 1"
  />
  <path
    fill="#bd812e"
    d="M652.5 655.5q9.2-1 17 2-.3 12.5.5 25l2 4q9.8 8.4 22.5 10.5-22-1-44-3a72 72 0 0 0-9-7q-33-14.7-60 9-16.5 0-32-4.5 1 .2 2-.5l-3-1q6-1.5 0-3 4-2 0-4 1.1-1 1-2.5 35.2 3.2 70-3.5a45 45 0 0 0 33-21.5"
    style="opacity: 1"
  />
  <path
    fill="#a56d1e"
    d="M376.5 668.5q1-.2 2 .5-5.7 1.8.5 3.5 4.1-1.5 8.5-2-.1 4.4 4 5-8-.2-16 1-2.7.1-4 2a89 89 0 0 1-20-7q12.4-2.4 25-3"
    style="opacity: 1"
  />
  <path
    fill="#a97024"
    d="M779.5 660.5h8v24q-28 4.2-56 7-.3-10 .5-20l1.5-1.5q26.4-4.5 53-8-3.8-.3-7-1.5"
    style="opacity: 1"
  />
  <path
    fill="#b1772a"
    d="M1098.5 654.5h3v25q-27.7 3.7-55.5 8-1.6 0-2.5-1h4v-23q22-3 44-6.5 4-.6 7-2.5"
    style="opacity: 1"
  />
  <path fill="#906218" d="M805.5 679.5q4-.3 8 .5-3.3.6-6.5 1.5-1.5-.5-1.5-2" style="opacity: 1" />
  <path
    fill="#945f17"
    d="M497.5 663.5q-6.5.3-12 3.5l-12 12q-5.8 2.5-12 4-28.5 1.2-57-1a30 30 0 0 1-13-6.5q-4.1-.6-4-5-4.5.5-8.5 2-6.2-1.7-.5-3.5-1-.7-2-.5v-1h3q3.3.2 6.5-1 5.3 6 13.5 7 25.2 4.7 51 6.5 8.5 1 17 0a32 32 0 0 0 7.5-5.5 131 131 0 0 0 7.5-16.5q5-.3 10-1.5 3 3 5 7"
    style="opacity: 1"
  />
  <path
    fill="#a26a1e"
    d="M921.5 681.5q31.5.2 63 1.5a8 8 0 0 0 6 2.5l9 4q.8 1.8 2 3.5-74.4-.7-149-.5a45 45 0 0 0-24-11.5q42.3 0 84.5 1.5 4.5 0 8.5-1"
    style="opacity: 1"
  />
  <path
    fill="#c4872f"
    d="M999.5 689.5q8 1.7 16 4l-14 2q-31.8 0-62.5 9-15.7-2.8-31.5-3.5l-50-1a54 54 0 0 1-5-7.5q74.6-.2 149 .5-1.2-1.7-2-3.5"
    style="opacity: 1"
  />
  <path fill="#5d4f30" d="M1015.5 693.5a3 3 0 0 1 3 1q-8.4 1.5-17 1z" style="opacity: 1" />
  <path
    fill="#f3f4f4"
    d="M608.5 702.5q17.6-1.2 16.5 16-7.5 12.3-20.5 5.5-9.5-13 4-21.5"
    style="opacity: 1"
  />
  <path
    fill="#5ab8ef"
    d="M827.5 704.5q-.5 17 1 34 1-.2 1-1 14.7-11.2 31-1.5a35 35 0 0 1 14 31q-.3 37.2-37 35-5.7-2-9.5-6.5a28 28 0 0 1-1.5 5 44 44 0 0 1-18.5 0q-1-48 0-96a48 48 0 0 1 19.5 0"
    style="opacity: 1"
  />
  <path fill="#437da0" d="m827.5 704.5 2 33q0 .8-1 1-1.5-17-1-34" style="opacity: 1" />
  <path
    fill="#f5f6f6"
    d="M466.5 733.5h12v-18a72 72 0 0 1 19-2.5q1.5 10.1 1 20.5h19v17h-19q-.3 15 .5 30a7 7 0 0 0 2.5 3.5l15 .5a100 100 0 0 1 3 12.5 3.5 3.5 0 0 1-3 3 34 34 0 0 1-32.5-3.5 59 59 0 0 1-5-9q-.8-18.5-.5-37-6.4.5-12.5-1-1.2-8 .5-16"
    style="opacity: 1"
  />
  <path fill="#4f5860" d="M478.5 715.5v18h-12q5.2-1.5 11-1-.5-8.8 1-17" style="opacity: 1" />
  <path
    fill="#f5f5f6"
    d="M420.5 731.5a52 52 0 0 1 29 5.5q7.7 6.8 10.5 16.5.8 24 .5 48-8 .5-16-1a60 60 0 0 1-3-7 22 22 0 0 1-14 8.5q-19.2 4.5-28.5-12.5-4.2-20.8 16.5-26.5 12-1.8 24-1.5 2.5-9.7-7-12.5-12-1.5-22.5 4.5-2-.5-3-2a59 59 0 0 0-5-9q-1.1-1.7.5-3a63 63 0 0 1 18-8"
    style="opacity: 1"
  />
  <path
    fill="#f4f4f5"
    d="M669.5 731.5q26.4-2.1 30.5 24 1 22.5 0 45a51 51 0 0 1-20 0l-1-44q-6.2-9.2-16.5-4.5-3.3 2.8-5.5 6.5-.8 21.5-.5 43h-20v-68q8.5-.3 17 .5 1.8 3.6 2.5 7.5 5.7-6.7 13.5-10"
    style="opacity: 1"
  />
  <path
    fill="#5cb9f1"
    d="M1107.5 731.5q15.3-.3 29 6.5 1.3 1 2 2.5-2.2 5.6-5 11l-2 1q-11.2-6-24-4.5-4 4 0 8 13.5 3 26 9a23 23 0 0 1 6.5 23.5 25 25 0 0 1-17.5 13.5 63 63 0 0 1-33-4q-3.5-1.5-5-5 1.8-7.4 7-12.5 11.4 7.7 25 6.5 8.6-3 2-9-13.5-3-26-9-11.7-12.5-3.5-27.5a33 33 0 0 1 18.5-10"
    style="opacity: 1"
  />
  <path
    fill="#f5f5f5"
    d="M526.5 733.5h20q-.3 22 .5 44 2 7 9 7 10.4 0 13-10 .8-20.5.5-41h20q.3 33.5-.5 67a47 47 0 0 1-16.5.5 18 18 0 0 1-2.5-8.5 21 21 0 0 1-20.5 10q-21.6-1-23.5-23a359 359 0 0 1 .5-46"
    style="opacity: 1"
  />
  <path
    fill="#eef0f0"
    d="M603.5 733.5q9.8-.5 19.5 1 1.3 33.3-.5 66.5-9.8 1.2-19.5-.5-1.2-33.6.5-67"
    style="opacity: 1"
  />
  <path
    fill="#5ab9f0"
    d="M902.5 731.5a47 47 0 0 1 31 7.5q6 5.6 7.5 13.5.8 24.5.5 49-8 .3-16-.5-1.8-3-3-6.5a31 31 0 0 1-35 4.5 23 23 0 0 1-7.5-23.5 26 26 0 0 1 16.5-12.5 126 126 0 0 1 25-1.5q1.9-10.2-8-12.5a29 29 0 0 0-21 4q-2.1 1.2-4-.5a73 73 0 0 0-5.5-10q-1-1.5 0-3a55 55 0 0 1 19.5-8"
    style="opacity: 1"
  />
  <path
    fill="#5ab8ef"
    d="M1012.5 733.5h20q-.3 21 .5 42 3.8 13.4 16.5 7.5 4.5-3.2 5.5-8.5.8-20.5.5-41h20v68q-8.5.3-17-.5a13 13 0 0 1-2.5-7.5q-10.4 12.3-26.5 8.5a22.5 22.5 0 0 1-16.5-20.5q-.8-24-.5-48"
    style="opacity: 1"
  />
  <path
    fill="#5ab8f0"
    d="M975.5 731.5q15-1.8 28 5.5 1.8 1.2 3 3-2.8 7.4-7.5 13.5-31-13.8-29 20 5.5 14.4 20.5 10.5l9-3.5a5 5 0 0 1 2.5 1 97 97 0 0 0 5.5 12 23 23 0 0 1-12 7.5 35 35 0 0 1-40.5-11.5 47 47 0 0 1 0-44 47 47 0 0 1 20.5-14"
    style="opacity: 1"
  />
  <path
    fill="#1a2b33"
    d="M834.5 749.5q11.5-2.7 17.5 7a36 36 0 0 1-1 23 18 18 0 0 1-5.5 4.5q-6 1-12 0-2.7-1.2-4.5-3.5-1-13 0-26 2.6-2.9 5.5-5"
    style="opacity: 1"
  />
  <path
    fill="#5cb9f0"
    d="M756.5 731.5a45 45 0 0 1 31 6.5 25 25 0 0 1 8.5 15.5q.8 24 .5 48-8 .3-16-.5-2-3.1-3.5-6.5a30 30 0 0 1-37.5 2.5q-13-15.9 2-30 6-3.8 13-5 10.5-.8 21-.5a11 11 0 0 0-4-11.5 31 31 0 0 0-26 3.5 21 21 0 0 1-7.5-14q8.8-5.4 18.5-8"
    style="opacity: 1"
  />
  <path
    fill="#1c2c35"
    d="M424.5 773.5h15q1 14-13 15-11.6 0-8-11a17 17 0 0 1 6-4"
    style="opacity: 1"
  />
  <path
    fill="#1f2d36"
    d="M758.5 773.5h17q1.5 14.8-13.5 15-10.2-.8-8-11 2.1-2.4 4.5-4"
    style="opacity: 1"
  />
  <path fill="#1b2c34" d="M904.5 773.5h17q-1 18-19 14.5-5.6-3.8-3.5-10.5z" style="opacity: 1" />
</svg>
